# xmcd
#
# Track frame offsets: 
#        150
#        13009
#        25009
#        36358
#
# Disc length: 674 seconds
#
# Revision: 0
# Processed by: cddbd v1.5.2PL0 Copyright (c) Steve Scherf et al.
# Submitted via: ExactAudioCopy v0.95b4
#
DISCID=2602a004
DTITLE=Coffinshaker, Rob - Dark Rollin' Skies EP
DYEAR=2011
DGENRE=Country
TTITLE0=Dark Rollin' Skies
TTITLE1=Stone Is Very, Very Cold
TTITLE2=Henry Green
TTITLE3=In The Pines
EXTD=
EXTT0=
EXTT1=
EXTT2=
EXTT3=
PLAYORDER=
